<svg xmlns="http://www.w3.org/2000/svg" width="32" height="32" viewBox="0 0 32 32" fill="none">
  <rect width="32" height="32" rx="6" fill="#22c1c3"/>
  <path d="M8 16C8 11.582 11.582 8 16 8C20.418 8 24 11.582 24 16C24 20.418 20.418 24 16 24C11.582 24 8 20.418 8 16Z" fill="#ffd166"/>
  <path d="M14 12C14 10.895 14.895 10 16 10C17.105 10 18 10.895 18 12C18 13.105 17.105 14 16 14C14.895 14 14 13.105 14 12Z" fill="#ff6f61"/>
  <path d="M13 18C13 16.895 13.895 16 15 16C16.105 16 17 16.895 17 18C17 19.105 16.105 20 15 20C13.895 20 13 19.105 13 18Z" fill="#ff6f61"/>
  <path d="M19 18C19 16.895 19.895 16 21 16C22.105 16 23 16.895 23 18C23 19.105 22.105 20 21 20C19.895 20 19 19.105 19 18Z" fill="#ff6f61"/>
</svg>